<mxfile host="app.diagrams.net" modified="2024-05-22T16:30:09.502Z" agent="Mozilla/5.0 (Windows NT 10.0; Win64; x64) AppleWebKit/537.36 (KHTML, like Gecko) Chrome/125.0.0.0 Safari/537.36" etag="dQqhtlR_4DOiGVT5zg3I" version="24.4.2" type="github">
  <diagram id="R2lEEEUBdFMjLlhIrx00" name="Page-1">
    <mxGraphModel dx="4370" dy="2972" grid="1" gridSize="10" guides="1" tooltips="1" connect="1" arrows="1" fold="1" page="1" pageScale="1" pageWidth="850" pageHeight="1100" math="0" shadow="0" extFonts="Permanent Marker^https://fonts.googleapis.com/css?family=Permanent+Marker">
      <root>
        <mxCell id="0" />
        <mxCell id="1" parent="0" />
        <mxCell id="Ew3ISGZHmtncqB4_4hlP-10" style="edgeStyle=orthogonalEdgeStyle;rounded=0;orthogonalLoop=1;jettySize=auto;html=1;exitX=0;exitY=0.25;exitDx=0;exitDy=0;entryX=1;entryY=0.5;entryDx=0;entryDy=0;fillColor=#66FFFF;" parent="1" source="eV3RhDoACjASwN6lXlzt-3" target="Ew3ISGZHmtncqB4_4hlP-4" edge="1">
          <mxGeometry relative="1" as="geometry" />
        </mxCell>
        <mxCell id="Ew3ISGZHmtncqB4_4hlP-11" style="edgeStyle=orthogonalEdgeStyle;rounded=0;orthogonalLoop=1;jettySize=auto;html=1;exitX=0;exitY=0.5;exitDx=0;exitDy=0;entryX=1;entryY=0.5;entryDx=0;entryDy=0;fillColor=#66FFFF;" parent="1" source="eV3RhDoACjASwN6lXlzt-3" target="Ew3ISGZHmtncqB4_4hlP-1" edge="1">
          <mxGeometry relative="1" as="geometry" />
        </mxCell>
        <mxCell id="Ew3ISGZHmtncqB4_4hlP-12" style="edgeStyle=orthogonalEdgeStyle;rounded=0;orthogonalLoop=1;jettySize=auto;html=1;exitX=0;exitY=0.75;exitDx=0;exitDy=0;entryX=1;entryY=0.5;entryDx=0;entryDy=0;fillColor=#66FFFF;" parent="1" source="eV3RhDoACjASwN6lXlzt-3" target="Ew3ISGZHmtncqB4_4hlP-5" edge="1">
          <mxGeometry relative="1" as="geometry" />
        </mxCell>
        <mxCell id="MG0eSca9hp437T0Xjx-o-3" style="edgeStyle=orthogonalEdgeStyle;rounded=0;orthogonalLoop=1;jettySize=auto;html=1;exitX=0.75;exitY=0;exitDx=0;exitDy=0;entryX=0;entryY=0.5;entryDx=0;entryDy=0;" edge="1" parent="1" source="eV3RhDoACjASwN6lXlzt-3" target="eV3RhDoACjASwN6lXlzt-23">
          <mxGeometry relative="1" as="geometry" />
        </mxCell>
        <mxCell id="MG0eSca9hp437T0Xjx-o-26" value="&lt;font style=&quot;font-size: 18px;&quot;&gt;&lt;b&gt;1&lt;/b&gt;&lt;/font&gt;" style="edgeLabel;html=1;align=center;verticalAlign=middle;resizable=0;points=[];" vertex="1" connectable="0" parent="MG0eSca9hp437T0Xjx-o-3">
          <mxGeometry x="0.5436" y="-1" relative="1" as="geometry">
            <mxPoint as="offset" />
          </mxGeometry>
        </mxCell>
        <mxCell id="MG0eSca9hp437T0Xjx-o-37" style="edgeStyle=orthogonalEdgeStyle;rounded=0;orthogonalLoop=1;jettySize=auto;html=1;exitX=0.25;exitY=0;exitDx=0;exitDy=0;entryX=1;entryY=0.5;entryDx=0;entryDy=0;" edge="1" parent="1" source="eV3RhDoACjASwN6lXlzt-3" target="eV3RhDoACjASwN6lXlzt-30">
          <mxGeometry relative="1" as="geometry" />
        </mxCell>
        <mxCell id="MG0eSca9hp437T0Xjx-o-38" value="&lt;font style=&quot;font-size: 24px;&quot;&gt;&lt;b&gt;1&lt;/b&gt;&lt;/font&gt;" style="edgeLabel;html=1;align=center;verticalAlign=middle;resizable=0;points=[];" vertex="1" connectable="0" parent="MG0eSca9hp437T0Xjx-o-37">
          <mxGeometry x="0.2041" y="1" relative="1" as="geometry">
            <mxPoint as="offset" />
          </mxGeometry>
        </mxCell>
        <mxCell id="eV3RhDoACjASwN6lXlzt-3" value="Customers" style="html=1;overflow=block;blockSpacing=1;whiteSpace=wrap;fontSize=16.7;spacing=9;rounded=1;absoluteArcSize=1;arcSize=9;strokeWidth=NaN;lucidId=O1Wx00iIs8_n;fillColor=#66FFFF;" parent="1" vertex="1">
          <mxGeometry x="-73" y="-100" width="120" height="90" as="geometry" />
        </mxCell>
        <mxCell id="oNS-cugH-SvngT2qNodD-30" style="edgeStyle=orthogonalEdgeStyle;rounded=0;orthogonalLoop=1;jettySize=auto;html=1;exitX=0;exitY=1;exitDx=0;exitDy=0;fillColor=#9AC7BF;" parent="1" source="eV3RhDoACjASwN6lXlzt-4" target="oNS-cugH-SvngT2qNodD-22" edge="1">
          <mxGeometry relative="1" as="geometry" />
        </mxCell>
        <mxCell id="oNS-cugH-SvngT2qNodD-31" style="edgeStyle=orthogonalEdgeStyle;rounded=0;orthogonalLoop=1;jettySize=auto;html=1;exitX=0.25;exitY=1;exitDx=0;exitDy=0;entryX=0.5;entryY=0;entryDx=0;entryDy=0;fillColor=#9AC7BF;" parent="1" source="eV3RhDoACjASwN6lXlzt-4" target="oNS-cugH-SvngT2qNodD-25" edge="1">
          <mxGeometry relative="1" as="geometry" />
        </mxCell>
        <mxCell id="oNS-cugH-SvngT2qNodD-33" style="edgeStyle=orthogonalEdgeStyle;rounded=0;orthogonalLoop=1;jettySize=auto;html=1;exitX=0.75;exitY=1;exitDx=0;exitDy=0;entryX=0.5;entryY=0;entryDx=0;entryDy=0;fillColor=#9AC7BF;" parent="1" source="eV3RhDoACjASwN6lXlzt-4" target="oNS-cugH-SvngT2qNodD-26" edge="1">
          <mxGeometry relative="1" as="geometry" />
        </mxCell>
        <mxCell id="oNS-cugH-SvngT2qNodD-35" style="edgeStyle=orthogonalEdgeStyle;rounded=0;orthogonalLoop=1;jettySize=auto;html=1;exitX=0.5;exitY=1;exitDx=0;exitDy=0;entryX=0.5;entryY=0;entryDx=0;entryDy=0;fillColor=#9AC7BF;" parent="1" source="eV3RhDoACjASwN6lXlzt-4" target="oNS-cugH-SvngT2qNodD-23" edge="1">
          <mxGeometry relative="1" as="geometry" />
        </mxCell>
        <mxCell id="oNS-cugH-SvngT2qNodD-38" style="edgeStyle=orthogonalEdgeStyle;rounded=0;orthogonalLoop=1;jettySize=auto;html=1;exitX=0;exitY=0.75;exitDx=0;exitDy=0;entryX=1;entryY=0.5;entryDx=0;entryDy=0;fillColor=#FFFFFF;" parent="1" source="eV3RhDoACjASwN6lXlzt-4" target="oNS-cugH-SvngT2qNodD-24" edge="1">
          <mxGeometry relative="1" as="geometry" />
        </mxCell>
        <mxCell id="eV3RhDoACjASwN6lXlzt-4" value="Products" style="html=1;overflow=block;blockSpacing=1;whiteSpace=wrap;fontSize=16.7;spacing=9;rounded=1;absoluteArcSize=1;arcSize=9;strokeWidth=NaN;lucidId=O1WxCh8SRQc-;fillColor=#9AC7BF;" parent="1" vertex="1">
          <mxGeometry x="310" y="410" width="120" height="90" as="geometry" />
        </mxCell>
        <mxCell id="sdWxecbIoMMPNqyhhqgh-22" style="edgeStyle=orthogonalEdgeStyle;rounded=0;orthogonalLoop=1;jettySize=auto;html=1;exitX=0;exitY=0.5;exitDx=0;exitDy=0;entryX=1;entryY=0.5;entryDx=0;entryDy=0;fillColor=#B5739D;" parent="1" source="eV3RhDoACjASwN6lXlzt-5" target="sdWxecbIoMMPNqyhhqgh-13" edge="1">
          <mxGeometry relative="1" as="geometry" />
        </mxCell>
        <mxCell id="MG0eSca9hp437T0Xjx-o-30" style="edgeStyle=orthogonalEdgeStyle;rounded=0;orthogonalLoop=1;jettySize=auto;html=1;exitX=0;exitY=0.25;exitDx=0;exitDy=0;entryX=1;entryY=0.5;entryDx=0;entryDy=0;" edge="1" parent="1" source="eV3RhDoACjASwN6lXlzt-5" target="MG0eSca9hp437T0Xjx-o-29">
          <mxGeometry relative="1" as="geometry" />
        </mxCell>
        <mxCell id="MG0eSca9hp437T0Xjx-o-31" style="edgeStyle=orthogonalEdgeStyle;rounded=0;orthogonalLoop=1;jettySize=auto;html=1;exitX=0;exitY=0.75;exitDx=0;exitDy=0;entryX=1;entryY=0.5;entryDx=0;entryDy=0;" edge="1" parent="1" source="eV3RhDoACjASwN6lXlzt-5" target="sdWxecbIoMMPNqyhhqgh-16">
          <mxGeometry relative="1" as="geometry" />
        </mxCell>
        <mxCell id="eV3RhDoACjASwN6lXlzt-5" value="Orders" style="html=1;overflow=block;blockSpacing=1;whiteSpace=wrap;fontSize=16.7;spacing=9;rounded=1;absoluteArcSize=1;arcSize=9;strokeWidth=NaN;lucidId=O1WxsksWZlcZ;fillColor=#B5739D;" parent="1" vertex="1">
          <mxGeometry x="-582" y="75" width="120" height="90" as="geometry" />
        </mxCell>
        <mxCell id="7wPqyoWWFyx9RwUsR-dm-4" style="edgeStyle=orthogonalEdgeStyle;rounded=0;orthogonalLoop=1;jettySize=auto;html=1;exitX=1;exitY=0.25;exitDx=0;exitDy=0;entryX=0;entryY=0.5;entryDx=0;entryDy=0;fillColor=#FF9933;" parent="1" source="eV3RhDoACjASwN6lXlzt-6" target="7wPqyoWWFyx9RwUsR-dm-1" edge="1">
          <mxGeometry relative="1" as="geometry" />
        </mxCell>
        <mxCell id="7wPqyoWWFyx9RwUsR-dm-5" style="edgeStyle=orthogonalEdgeStyle;rounded=0;orthogonalLoop=1;jettySize=auto;html=1;exitX=1;exitY=0.5;exitDx=0;exitDy=0;entryX=0;entryY=0.5;entryDx=0;entryDy=0;fillColor=#FF9933;" parent="1" source="eV3RhDoACjASwN6lXlzt-6" target="7wPqyoWWFyx9RwUsR-dm-2" edge="1">
          <mxGeometry relative="1" as="geometry" />
        </mxCell>
        <mxCell id="7wPqyoWWFyx9RwUsR-dm-6" style="edgeStyle=orthogonalEdgeStyle;rounded=0;orthogonalLoop=1;jettySize=auto;html=1;exitX=1;exitY=0.75;exitDx=0;exitDy=0;entryX=0;entryY=0.5;entryDx=0;entryDy=0;fillColor=#FF9933;" parent="1" source="eV3RhDoACjASwN6lXlzt-6" target="7wPqyoWWFyx9RwUsR-dm-3" edge="1">
          <mxGeometry relative="1" as="geometry" />
        </mxCell>
        <mxCell id="eV3RhDoACjASwN6lXlzt-6" value="Carts" style="html=1;overflow=block;blockSpacing=1;whiteSpace=wrap;fontSize=16.7;spacing=9;rounded=1;absoluteArcSize=1;arcSize=9;strokeWidth=NaN;lucidId=O1WxNh_-pPMl;fillColor=#FF9933;" parent="1" vertex="1">
          <mxGeometry x="410" y="-400" width="120" height="90" as="geometry" />
        </mxCell>
        <mxCell id="eV3RhDoACjASwN6lXlzt-7" value="Admin" style="html=1;overflow=block;blockSpacing=1;whiteSpace=wrap;fontSize=16.7;spacing=9;rounded=1;absoluteArcSize=1;arcSize=9;strokeWidth=NaN;lucidId=O1WxjDPdvXiL;fillColor=#FF66B3;" parent="1" vertex="1">
          <mxGeometry x="738" y="360" width="120" height="90" as="geometry" />
        </mxCell>
        <mxCell id="sdWxecbIoMMPNqyhhqgh-7" style="edgeStyle=orthogonalEdgeStyle;rounded=0;orthogonalLoop=1;jettySize=auto;html=1;exitX=0;exitY=0;exitDx=0;exitDy=0;entryX=1;entryY=0.5;entryDx=0;entryDy=0;fillColor=#FFFFFF;" parent="1" source="eV3RhDoACjASwN6lXlzt-8" target="sdWxecbIoMMPNqyhhqgh-1" edge="1">
          <mxGeometry relative="1" as="geometry">
            <Array as="points">
              <mxPoint x="-73" y="94" />
            </Array>
          </mxGeometry>
        </mxCell>
        <mxCell id="sdWxecbIoMMPNqyhhqgh-8" style="edgeStyle=orthogonalEdgeStyle;rounded=0;orthogonalLoop=1;jettySize=auto;html=1;exitX=0;exitY=0.25;exitDx=0;exitDy=0;entryX=1;entryY=0.5;entryDx=0;entryDy=0;fillColor=#FFFFFF;" parent="1" source="eV3RhDoACjASwN6lXlzt-8" target="sdWxecbIoMMPNqyhhqgh-2" edge="1">
          <mxGeometry relative="1" as="geometry" />
        </mxCell>
        <mxCell id="sdWxecbIoMMPNqyhhqgh-9" style="edgeStyle=orthogonalEdgeStyle;rounded=0;orthogonalLoop=1;jettySize=auto;html=1;exitX=0;exitY=0.5;exitDx=0;exitDy=0;entryX=1;entryY=0.5;entryDx=0;entryDy=0;fillColor=#FFFFFF;" parent="1" source="eV3RhDoACjASwN6lXlzt-8" target="sdWxecbIoMMPNqyhhqgh-3" edge="1">
          <mxGeometry relative="1" as="geometry" />
        </mxCell>
        <mxCell id="sdWxecbIoMMPNqyhhqgh-10" style="edgeStyle=orthogonalEdgeStyle;rounded=0;orthogonalLoop=1;jettySize=auto;html=1;exitX=0;exitY=0.75;exitDx=0;exitDy=0;entryX=1;entryY=0.5;entryDx=0;entryDy=0;fillColor=#FFFFFF;" parent="1" source="eV3RhDoACjASwN6lXlzt-8" target="sdWxecbIoMMPNqyhhqgh-4" edge="1">
          <mxGeometry relative="1" as="geometry" />
        </mxCell>
        <mxCell id="sdWxecbIoMMPNqyhhqgh-11" style="edgeStyle=orthogonalEdgeStyle;rounded=0;orthogonalLoop=1;jettySize=auto;html=1;exitX=0;exitY=1;exitDx=0;exitDy=0;entryX=1;entryY=0.5;entryDx=0;entryDy=0;fillColor=#FFFFFF;" parent="1" source="eV3RhDoACjASwN6lXlzt-8" target="sdWxecbIoMMPNqyhhqgh-5" edge="1">
          <mxGeometry relative="1" as="geometry" />
        </mxCell>
        <mxCell id="sdWxecbIoMMPNqyhhqgh-12" style="edgeStyle=orthogonalEdgeStyle;rounded=0;orthogonalLoop=1;jettySize=auto;html=1;entryX=1;entryY=0.5;entryDx=0;entryDy=0;fillColor=#FFFFFF;" parent="1" source="eV3RhDoACjASwN6lXlzt-8" target="sdWxecbIoMMPNqyhhqgh-6" edge="1">
          <mxGeometry relative="1" as="geometry" />
        </mxCell>
        <mxCell id="MG0eSca9hp437T0Xjx-o-5" style="edgeStyle=orthogonalEdgeStyle;rounded=0;orthogonalLoop=1;jettySize=auto;html=1;exitX=0.5;exitY=1;exitDx=0;exitDy=0;entryX=0;entryY=0.5;entryDx=0;entryDy=0;" edge="1" parent="1" source="eV3RhDoACjASwN6lXlzt-8" target="eV3RhDoACjASwN6lXlzt-45">
          <mxGeometry relative="1" as="geometry" />
        </mxCell>
        <mxCell id="MG0eSca9hp437T0Xjx-o-6" value="&lt;font style=&quot;font-size: 18px;&quot;&gt;&lt;b&gt;1&lt;/b&gt;&lt;/font&gt;" style="edgeLabel;html=1;align=center;verticalAlign=middle;resizable=0;points=[];" vertex="1" connectable="0" parent="MG0eSca9hp437T0Xjx-o-5">
          <mxGeometry x="-0.5165" relative="1" as="geometry">
            <mxPoint as="offset" />
          </mxGeometry>
        </mxCell>
        <mxCell id="eV3RhDoACjASwN6lXlzt-8" value="Sellers" style="html=1;overflow=block;blockSpacing=1;whiteSpace=wrap;fontSize=16.7;spacing=9;rounded=1;absoluteArcSize=1;arcSize=9;strokeWidth=NaN;lucidId=O1WxEMNs407I;fillColor=#66B2FF;" parent="1" vertex="1">
          <mxGeometry x="-73" y="97" width="120" height="90" as="geometry" />
        </mxCell>
        <mxCell id="mWximblNaosc78DOpVdS-12" style="edgeStyle=orthogonalEdgeStyle;rounded=0;orthogonalLoop=1;jettySize=auto;html=1;exitX=0.5;exitY=0;exitDx=0;exitDy=0;entryX=0.5;entryY=1;entryDx=0;entryDy=0;fillColor=#FFFF66;" parent="1" source="eV3RhDoACjASwN6lXlzt-10" target="mWximblNaosc78DOpVdS-3" edge="1">
          <mxGeometry relative="1" as="geometry" />
        </mxCell>
        <mxCell id="mWximblNaosc78DOpVdS-14" style="edgeStyle=orthogonalEdgeStyle;rounded=0;orthogonalLoop=1;jettySize=auto;html=1;exitX=0.25;exitY=0;exitDx=0;exitDy=0;entryX=0.5;entryY=1;entryDx=0;entryDy=0;fillColor=#FFFF66;" parent="1" source="eV3RhDoACjASwN6lXlzt-10" target="mWximblNaosc78DOpVdS-2" edge="1">
          <mxGeometry relative="1" as="geometry" />
        </mxCell>
        <mxCell id="mWximblNaosc78DOpVdS-16" style="edgeStyle=orthogonalEdgeStyle;rounded=0;orthogonalLoop=1;jettySize=auto;html=1;exitX=0.75;exitY=0;exitDx=0;exitDy=0;entryX=0.5;entryY=1;entryDx=0;entryDy=0;fillColor=#FFFF66;" parent="1" source="eV3RhDoACjASwN6lXlzt-10" target="mWximblNaosc78DOpVdS-4" edge="1">
          <mxGeometry relative="1" as="geometry" />
        </mxCell>
        <mxCell id="mWximblNaosc78DOpVdS-17" style="edgeStyle=orthogonalEdgeStyle;rounded=0;orthogonalLoop=1;jettySize=auto;html=1;exitX=0.25;exitY=1;exitDx=0;exitDy=0;entryX=0.5;entryY=0;entryDx=0;entryDy=0;fillColor=#FFFF66;" parent="1" source="eV3RhDoACjASwN6lXlzt-10" target="mWximblNaosc78DOpVdS-6" edge="1">
          <mxGeometry relative="1" as="geometry" />
        </mxCell>
        <mxCell id="mWximblNaosc78DOpVdS-18" style="edgeStyle=orthogonalEdgeStyle;rounded=0;orthogonalLoop=1;jettySize=auto;html=1;exitX=0.5;exitY=1;exitDx=0;exitDy=0;entryX=0.5;entryY=0;entryDx=0;entryDy=0;fillColor=#FFFF66;" parent="1" source="eV3RhDoACjASwN6lXlzt-10" target="mWximblNaosc78DOpVdS-7" edge="1">
          <mxGeometry relative="1" as="geometry" />
        </mxCell>
        <mxCell id="mWximblNaosc78DOpVdS-19" style="edgeStyle=orthogonalEdgeStyle;rounded=0;orthogonalLoop=1;jettySize=auto;html=1;exitX=0.75;exitY=1;exitDx=0;exitDy=0;entryX=0.5;entryY=0;entryDx=0;entryDy=0;fillColor=#FFFF66;" parent="1" source="eV3RhDoACjASwN6lXlzt-10" target="mWximblNaosc78DOpVdS-5" edge="1">
          <mxGeometry relative="1" as="geometry" />
        </mxCell>
        <mxCell id="Ew3ISGZHmtncqB4_4hlP-8" style="edgeStyle=orthogonalEdgeStyle;rounded=0;orthogonalLoop=1;jettySize=auto;html=1;exitX=0;exitY=1;exitDx=0;exitDy=0;entryX=0.5;entryY=0;entryDx=0;entryDy=0;fillColor=#FFFF66;" parent="1" source="eV3RhDoACjASwN6lXlzt-10" target="Ew3ISGZHmtncqB4_4hlP-7" edge="1">
          <mxGeometry relative="1" as="geometry" />
        </mxCell>
        <mxCell id="Ew3ISGZHmtncqB4_4hlP-9" style="edgeStyle=orthogonalEdgeStyle;rounded=0;orthogonalLoop=1;jettySize=auto;html=1;exitX=1;exitY=0;exitDx=0;exitDy=0;entryX=0.5;entryY=1;entryDx=0;entryDy=0;fillColor=#FFFF66;" parent="1" source="eV3RhDoACjASwN6lXlzt-10" target="Ew3ISGZHmtncqB4_4hlP-6" edge="1">
          <mxGeometry relative="1" as="geometry" />
        </mxCell>
        <mxCell id="MG0eSca9hp437T0Xjx-o-1" style="edgeStyle=orthogonalEdgeStyle;rounded=0;orthogonalLoop=1;jettySize=auto;html=1;exitX=0;exitY=0.75;exitDx=0;exitDy=0;" edge="1" parent="1" source="eV3RhDoACjASwN6lXlzt-10" target="eV3RhDoACjASwN6lXlzt-20">
          <mxGeometry relative="1" as="geometry" />
        </mxCell>
        <mxCell id="MG0eSca9hp437T0Xjx-o-2" value="&lt;font style=&quot;font-size: 14px;&quot;&gt;1&lt;/font&gt;" style="edgeLabel;html=1;align=center;verticalAlign=middle;resizable=0;points=[];" vertex="1" connectable="0" parent="MG0eSca9hp437T0Xjx-o-1">
          <mxGeometry x="-0.0872" y="2" relative="1" as="geometry">
            <mxPoint as="offset" />
          </mxGeometry>
        </mxCell>
        <mxCell id="eV3RhDoACjASwN6lXlzt-10" value="Personal Info" style="html=1;overflow=block;blockSpacing=1;whiteSpace=wrap;fontSize=16.7;spacing=9;rounded=1;absoluteArcSize=1;arcSize=9;strokeWidth=NaN;lucidId=O1Wxrj9NdLNg;fillColor=#FFFF66;" parent="1" vertex="1">
          <mxGeometry x="513" y="-23" width="120" height="90" as="geometry" />
        </mxCell>
        <mxCell id="eV3RhDoACjASwN6lXlzt-13" value="Discount" style="html=1;overflow=block;blockSpacing=1;whiteSpace=wrap;fontSize=16.7;spacing=9;rounded=1;absoluteArcSize=1;arcSize=9;strokeWidth=NaN;lucidId=O1WxFS6N8Owv;fillColor=#FF66FF;" parent="1" vertex="1">
          <mxGeometry x="1070" y="610" width="120" height="90" as="geometry" />
        </mxCell>
        <mxCell id="sdWxecbIoMMPNqyhhqgh-25" value="" style="edgeStyle=orthogonalEdgeStyle;rounded=0;orthogonalLoop=1;jettySize=auto;html=1;fillColor=#FFFFFF;" parent="1" source="eV3RhDoACjASwN6lXlzt-14" target="eV3RhDoACjASwN6lXlzt-33" edge="1">
          <mxGeometry relative="1" as="geometry" />
        </mxCell>
        <mxCell id="sdWxecbIoMMPNqyhhqgh-27" value="" style="edgeStyle=orthogonalEdgeStyle;rounded=0;orthogonalLoop=1;jettySize=auto;html=1;fillColor=#FFFFFF;" parent="1" source="eV3RhDoACjASwN6lXlzt-14" target="eV3RhDoACjASwN6lXlzt-33" edge="1">
          <mxGeometry relative="1" as="geometry" />
        </mxCell>
        <mxCell id="MG0eSca9hp437T0Xjx-o-8" style="edgeStyle=orthogonalEdgeStyle;rounded=0;orthogonalLoop=1;jettySize=auto;html=1;exitX=1;exitY=0.5;exitDx=0;exitDy=0;entryX=0;entryY=0.5;entryDx=0;entryDy=0;" edge="1" parent="1" source="eV3RhDoACjASwN6lXlzt-14" target="MG0eSca9hp437T0Xjx-o-7">
          <mxGeometry relative="1" as="geometry" />
        </mxCell>
        <mxCell id="MG0eSca9hp437T0Xjx-o-12" value="&lt;font style=&quot;font-size: 18px;&quot;&gt;&lt;b&gt;1&lt;/b&gt;&lt;/font&gt;" style="edgeLabel;html=1;align=center;verticalAlign=middle;resizable=0;points=[];" vertex="1" connectable="0" parent="MG0eSca9hp437T0Xjx-o-8">
          <mxGeometry x="0.0161" y="-2" relative="1" as="geometry">
            <mxPoint as="offset" />
          </mxGeometry>
        </mxCell>
        <mxCell id="MG0eSca9hp437T0Xjx-o-14" style="edgeStyle=orthogonalEdgeStyle;rounded=0;orthogonalLoop=1;jettySize=auto;html=1;exitX=0;exitY=1;exitDx=0;exitDy=0;entryX=1;entryY=0.5;entryDx=0;entryDy=0;" edge="1" parent="1" source="eV3RhDoACjASwN6lXlzt-14" target="sdWxecbIoMMPNqyhhqgh-19">
          <mxGeometry relative="1" as="geometry" />
        </mxCell>
        <mxCell id="MG0eSca9hp437T0Xjx-o-15" style="edgeStyle=orthogonalEdgeStyle;rounded=0;orthogonalLoop=1;jettySize=auto;html=1;exitX=0.25;exitY=1;exitDx=0;exitDy=0;entryX=1;entryY=0.5;entryDx=0;entryDy=0;" edge="1" parent="1" source="eV3RhDoACjASwN6lXlzt-14" target="sdWxecbIoMMPNqyhhqgh-17">
          <mxGeometry relative="1" as="geometry" />
        </mxCell>
        <mxCell id="MG0eSca9hp437T0Xjx-o-16" style="edgeStyle=orthogonalEdgeStyle;rounded=0;orthogonalLoop=1;jettySize=auto;html=1;exitX=0.5;exitY=1;exitDx=0;exitDy=0;" edge="1" parent="1" source="eV3RhDoACjASwN6lXlzt-14" target="sdWxecbIoMMPNqyhhqgh-18">
          <mxGeometry relative="1" as="geometry" />
        </mxCell>
        <mxCell id="MG0eSca9hp437T0Xjx-o-18" style="edgeStyle=orthogonalEdgeStyle;rounded=0;orthogonalLoop=1;jettySize=auto;html=1;exitX=1;exitY=0.75;exitDx=0;exitDy=0;entryX=0;entryY=0.5;entryDx=0;entryDy=0;" edge="1" parent="1" source="eV3RhDoACjASwN6lXlzt-14" target="MG0eSca9hp437T0Xjx-o-17">
          <mxGeometry relative="1" as="geometry" />
        </mxCell>
        <mxCell id="MG0eSca9hp437T0Xjx-o-25" value="&lt;font style=&quot;font-size: 18px;&quot;&gt;&lt;b&gt;1&lt;/b&gt;&lt;/font&gt;" style="edgeLabel;html=1;align=center;verticalAlign=middle;resizable=0;points=[];" vertex="1" connectable="0" parent="MG0eSca9hp437T0Xjx-o-18">
          <mxGeometry x="0.0602" relative="1" as="geometry">
            <mxPoint as="offset" />
          </mxGeometry>
        </mxCell>
        <mxCell id="eV3RhDoACjASwN6lXlzt-14" value="Order_details" style="html=1;overflow=block;blockSpacing=1;whiteSpace=wrap;fontSize=16.7;spacing=9;rounded=1;absoluteArcSize=1;arcSize=9;strokeWidth=NaN;lucidId=O1WxLpfn80ZY;fillColor=#33FF99;" parent="1" vertex="1">
          <mxGeometry x="-582" y="442" width="120" height="90" as="geometry" />
        </mxCell>
        <mxCell id="eV3RhDoACjASwN6lXlzt-15" value="Has" style="html=1;overflow=block;blockSpacing=1;whiteSpace=wrap;rhombus;fontSize=16.7;spacing=3.8;rounded=1;absoluteArcSize=1;arcSize=9;strokeWidth=NaN;lucidId=O1WxJ_b~yZDC;fillColor=#FFFFFF;" parent="1" vertex="1">
          <mxGeometry x="190" y="-100" width="120" height="90" as="geometry" />
        </mxCell>
        <mxCell id="eV3RhDoACjASwN6lXlzt-16" value="" style="html=1;jettySize=18;whiteSpace=wrap;fontSize=13;strokeColor=#3a414a;strokeOpacity=100;strokeWidth=0.8;rounded=1;arcSize=12;edgeStyle=orthogonalEdgeStyle;startArrow=none;endArrow=block;endFill=1;entryX=0.988;entryY=0.5;entryPerimeter=0;lucidId=O1WxjpxRYAW8;fillColor=#FFFFFF;" parent="1" target="eV3RhDoACjASwN6lXlzt-15" edge="1">
          <mxGeometry width="100" height="100" relative="1" as="geometry">
            <Array as="points" />
            <mxPoint x="510" as="sourcePoint" />
          </mxGeometry>
        </mxCell>
        <mxCell id="eV3RhDoACjASwN6lXlzt-17" value="1" style="text;html=1;resizable=0;labelBackgroundColor=default;align=center;verticalAlign=middle;fontStyle=1;fontColor=#333333;fontSize=20;fillColor=#FFFF66;" parent="eV3RhDoACjASwN6lXlzt-16" vertex="1">
          <mxGeometry relative="1" as="geometry" />
        </mxCell>
        <mxCell id="eV3RhDoACjASwN6lXlzt-18" value="" style="html=1;jettySize=18;whiteSpace=wrap;fontSize=13;strokeColor=#3a414a;strokeOpacity=100;strokeWidth=0.8;rounded=1;arcSize=12;edgeStyle=orthogonalEdgeStyle;startArrow=none;endArrow=block;endFill=1;exitX=1.006;exitY=0.5;exitPerimeter=0;entryX=0.012;entryY=0.5;entryPerimeter=0;lucidId=O1Wxjqw-CUH-;fillColor=#FFFFFF;" parent="1" source="eV3RhDoACjASwN6lXlzt-3" target="eV3RhDoACjASwN6lXlzt-15" edge="1">
          <mxGeometry width="100" height="100" relative="1" as="geometry">
            <Array as="points" />
          </mxGeometry>
        </mxCell>
        <mxCell id="eV3RhDoACjASwN6lXlzt-19" value="1" style="text;html=1;resizable=0;labelBackgroundColor=default;align=center;verticalAlign=middle;fontStyle=1;fontColor=#333333;fontSize=20;fillColor=#FFFFFF;" parent="eV3RhDoACjASwN6lXlzt-18" vertex="1">
          <mxGeometry relative="1" as="geometry" />
        </mxCell>
        <mxCell id="eV3RhDoACjASwN6lXlzt-20" value="Has" style="html=1;overflow=block;blockSpacing=1;whiteSpace=wrap;rhombus;fontSize=16.7;spacing=3.8;rounded=1;absoluteArcSize=1;arcSize=9;strokeWidth=NaN;lucidId=O1WxpV8O8To7;fillColor=#FFFFFF;" parent="1" vertex="1">
          <mxGeometry x="190" y="97" width="120" height="90" as="geometry" />
        </mxCell>
        <mxCell id="eV3RhDoACjASwN6lXlzt-21" value="" style="html=1;jettySize=18;whiteSpace=wrap;fontSize=20;fontColor=#333333;fontStyle=1;strokeColor=#3a414a;strokeOpacity=100;strokeWidth=0.8;rounded=1;arcSize=12;edgeStyle=orthogonalEdgeStyle;startArrow=block;startFill=1;endArrow=none;exitX=0.012;exitY=0.5;exitPerimeter=0;entryX=1.006;entryY=0.5;entryPerimeter=0;lucidId=O1Wx4GPd4xas;fillColor=#FFFFFF;" parent="1" source="eV3RhDoACjASwN6lXlzt-20" target="eV3RhDoACjASwN6lXlzt-8" edge="1">
          <mxGeometry width="100" height="100" relative="1" as="geometry">
            <Array as="points" />
          </mxGeometry>
        </mxCell>
        <mxCell id="eV3RhDoACjASwN6lXlzt-22" value="1" style="text;html=1;resizable=0;labelBackgroundColor=default;align=center;verticalAlign=middle;fontStyle=1;fontColor=#333333;fontSize=20;fillColor=#FFFFFF;" parent="eV3RhDoACjASwN6lXlzt-21" vertex="1">
          <mxGeometry relative="1" as="geometry" />
        </mxCell>
        <mxCell id="eV3RhDoACjASwN6lXlzt-23" value="ProductCart" style="html=1;overflow=block;blockSpacing=1;whiteSpace=wrap;rhombus;fontSize=16.7;spacing=3.8;rounded=1;absoluteArcSize=1;arcSize=9;strokeWidth=NaN;lucidId=O1WxP7Re3~5b;fillColor=#FFFFFF;" parent="1" vertex="1">
          <mxGeometry x="190" y="-400" width="120" height="90" as="geometry" />
        </mxCell>
        <mxCell id="eV3RhDoACjASwN6lXlzt-26" value="" style="html=1;jettySize=18;whiteSpace=wrap;fontSize=18.3;fontColor=#333333;fontStyle=1;strokeColor=#3a414a;strokeOpacity=100;strokeWidth=0.8;rounded=1;arcSize=12;edgeStyle=orthogonalEdgeStyle;startArrow=block;startFill=1;endArrow=none;exitX=0.988;exitY=0.5;exitPerimeter=0;entryX=-0.006;entryY=0.5;entryPerimeter=0;lucidId=O1WxR9lD-HbA;fillColor=#FFFFFF;" parent="1" source="eV3RhDoACjASwN6lXlzt-23" target="eV3RhDoACjASwN6lXlzt-6" edge="1">
          <mxGeometry width="100" height="100" relative="1" as="geometry">
            <Array as="points" />
          </mxGeometry>
        </mxCell>
        <mxCell id="eV3RhDoACjASwN6lXlzt-27" value="1" style="text;html=1;resizable=0;labelBackgroundColor=default;align=center;verticalAlign=middle;fontStyle=1;fontColor=#333333;fontSize=18.3;fillColor=#FFFFFF;" parent="eV3RhDoACjASwN6lXlzt-26" vertex="1">
          <mxGeometry relative="1" as="geometry" />
        </mxCell>
        <mxCell id="eV3RhDoACjASwN6lXlzt-30" value="Order" style="html=1;overflow=block;blockSpacing=1;whiteSpace=wrap;rhombus;fontSize=16.7;spacing=3.8;rounded=1;absoluteArcSize=1;arcSize=9;strokeWidth=NaN;lucidId=O1WxnD-HCYzU;fillColor=#FFFFFF;" parent="1" vertex="1">
          <mxGeometry x="-420" y="-280" width="120" height="90" as="geometry" />
        </mxCell>
        <mxCell id="eV3RhDoACjASwN6lXlzt-33" value="Has" style="html=1;overflow=block;blockSpacing=1;whiteSpace=wrap;rhombus;fontSize=16.7;spacing=3.8;rounded=1;absoluteArcSize=1;arcSize=9;strokeWidth=NaN;lucidId=O1WxVKZRYy1b;fillColor=#FFFFFF;" parent="1" vertex="1">
          <mxGeometry x="-582" y="262" width="120" height="90" as="geometry" />
        </mxCell>
        <mxCell id="eV3RhDoACjASwN6lXlzt-34" value="" style="html=1;jettySize=18;whiteSpace=wrap;fontSize=13;strokeColor=#3a414a;strokeOpacity=100;strokeWidth=0.8;rounded=1;arcSize=12;edgeStyle=orthogonalEdgeStyle;startArrow=none;endArrow=block;endFill=1;exitX=0.5;exitY=1.008;exitPerimeter=0;entryX=0.5;entryY=0.008;entryPerimeter=0;lucidId=O1WxKmTZLIMn;fillColor=#FFFFFF;" parent="1" source="eV3RhDoACjASwN6lXlzt-5" target="eV3RhDoACjASwN6lXlzt-33" edge="1">
          <mxGeometry width="100" height="100" relative="1" as="geometry">
            <Array as="points" />
          </mxGeometry>
        </mxCell>
        <mxCell id="eV3RhDoACjASwN6lXlzt-35" value="1" style="text;html=1;resizable=0;labelBackgroundColor=default;align=center;verticalAlign=middle;fontStyle=1;fontColor=#333333;fontSize=23.3;fillColor=#B5739D;" parent="eV3RhDoACjASwN6lXlzt-34" vertex="1">
          <mxGeometry x="-0.15713007964015135" relative="1" as="geometry" />
        </mxCell>
        <mxCell id="eV3RhDoACjASwN6lXlzt-36" value="" style="html=1;jettySize=18;whiteSpace=wrap;fontSize=13;strokeColor=#3a414a;strokeOpacity=100;strokeWidth=0.8;rounded=1;arcSize=12;edgeStyle=orthogonalEdgeStyle;startArrow=none;endArrow=ERone;endSize=10;exitX=0.5;exitY=1.008;exitPerimeter=0;entryX=0.5;entryY=0.008;entryPerimeter=0;lucidId=O1Wx2KIDSCyf;fillColor=#FFFFFF;" parent="1" source="eV3RhDoACjASwN6lXlzt-5" target="eV3RhDoACjASwN6lXlzt-33" edge="1">
          <mxGeometry width="100" height="100" relative="1" as="geometry">
            <Array as="points" />
          </mxGeometry>
        </mxCell>
        <mxCell id="MG0eSca9hp437T0Xjx-o-42" style="edgeStyle=orthogonalEdgeStyle;rounded=0;orthogonalLoop=1;jettySize=auto;html=1;exitX=0;exitY=0;exitDx=0;exitDy=0;entryX=0.5;entryY=1;entryDx=0;entryDy=0;" edge="1" parent="1" source="eV3RhDoACjASwN6lXlzt-37" target="MG0eSca9hp437T0Xjx-o-40">
          <mxGeometry relative="1" as="geometry" />
        </mxCell>
        <mxCell id="MG0eSca9hp437T0Xjx-o-44" style="edgeStyle=orthogonalEdgeStyle;rounded=0;orthogonalLoop=1;jettySize=auto;html=1;exitX=0;exitY=1;exitDx=0;exitDy=0;entryX=1;entryY=0.5;entryDx=0;entryDy=0;" edge="1" parent="1" source="eV3RhDoACjASwN6lXlzt-37" target="MG0eSca9hp437T0Xjx-o-41">
          <mxGeometry relative="1" as="geometry" />
        </mxCell>
        <mxCell id="eV3RhDoACjASwN6lXlzt-37" value="comment" style="html=1;overflow=block;blockSpacing=1;whiteSpace=wrap;rhombus;fontSize=16.7;spacing=3.8;rounded=1;absoluteArcSize=1;arcSize=9;strokeWidth=NaN;lucidId=O1WxYz_HGPvT;fillColor=#FFFFFF;" parent="1" vertex="1">
          <mxGeometry x="-73" y="-488" width="120" height="90" as="geometry" />
        </mxCell>
        <mxCell id="eV3RhDoACjASwN6lXlzt-38" value="" style="html=1;jettySize=18;whiteSpace=wrap;fontSize=13;strokeColor=#3a414a;strokeOpacity=100;strokeWidth=0.8;rounded=1;arcSize=12;edgeStyle=orthogonalEdgeStyle;startArrow=none;endArrow=block;endFill=1;exitX=0.5;exitY=-0.008;exitPerimeter=0;entryX=0.5;entryY=0.992;entryPerimeter=0;lucidId=O1Wx31T4gvih;fillColor=#FFFFFF;" parent="1" source="eV3RhDoACjASwN6lXlzt-3" target="eV3RhDoACjASwN6lXlzt-37" edge="1">
          <mxGeometry width="100" height="100" relative="1" as="geometry">
            <Array as="points" />
          </mxGeometry>
        </mxCell>
        <mxCell id="MG0eSca9hp437T0Xjx-o-46" value="&lt;font style=&quot;font-size: 24px;&quot;&gt;&lt;b&gt;n&lt;/b&gt;&lt;/font&gt;" style="edgeLabel;html=1;align=center;verticalAlign=middle;resizable=0;points=[];" vertex="1" connectable="0" parent="eV3RhDoACjASwN6lXlzt-38">
          <mxGeometry x="-0.1995" y="-2" relative="1" as="geometry">
            <mxPoint as="offset" />
          </mxGeometry>
        </mxCell>
        <mxCell id="eV3RhDoACjASwN6lXlzt-42" value="Valid" style="html=1;overflow=block;blockSpacing=1;whiteSpace=wrap;rhombus;fontSize=20;spacing=3.8;rounded=1;absoluteArcSize=1;arcSize=9;strokeWidth=NaN;lucidId=O1WxSDfNICZ2;fillColor=#FFFFFF;" parent="1" vertex="1">
          <mxGeometry x="513" y="390" width="120" height="90" as="geometry" />
        </mxCell>
        <mxCell id="eV3RhDoACjASwN6lXlzt-43" value="" style="html=1;jettySize=18;whiteSpace=wrap;fontSize=13;strokeColor=#3a414a;strokeOpacity=100;strokeWidth=0.8;rounded=1;arcSize=12;edgeStyle=orthogonalEdgeStyle;startArrow=none;endArrow=block;endFill=1;exitX=-0.006;exitY=0.5;exitPerimeter=0;entryX=0.988;entryY=0.5;entryPerimeter=0;lucidId=O1WxshTrxIyv;fillColor=#FFFFFF;" parent="1" source="eV3RhDoACjASwN6lXlzt-7" target="eV3RhDoACjASwN6lXlzt-42" edge="1">
          <mxGeometry width="100" height="100" relative="1" as="geometry">
            <Array as="points" />
          </mxGeometry>
        </mxCell>
        <mxCell id="eV3RhDoACjASwN6lXlzt-44" value="1" style="text;html=1;resizable=0;labelBackgroundColor=default;align=center;verticalAlign=middle;fontStyle=1;fontColor=#333333;fontSize=23.3;fillColor=#FFFFFF;" parent="eV3RhDoACjASwN6lXlzt-43" vertex="1">
          <mxGeometry relative="1" as="geometry" />
        </mxCell>
        <mxCell id="MG0eSca9hp437T0Xjx-o-10" style="edgeStyle=orthogonalEdgeStyle;rounded=0;orthogonalLoop=1;jettySize=auto;html=1;exitX=1;exitY=0.5;exitDx=0;exitDy=0;entryX=0;entryY=0;entryDx=0;entryDy=0;" edge="1" parent="1" source="eV3RhDoACjASwN6lXlzt-45" target="eV3RhDoACjASwN6lXlzt-4">
          <mxGeometry relative="1" as="geometry" />
        </mxCell>
        <mxCell id="MG0eSca9hp437T0Xjx-o-11" value="&lt;font style=&quot;font-size: 18px;&quot;&gt;&lt;b&gt;n&lt;/b&gt;&lt;/font&gt;" style="edgeLabel;html=1;align=center;verticalAlign=middle;resizable=0;points=[];" vertex="1" connectable="0" parent="MG0eSca9hp437T0Xjx-o-10">
          <mxGeometry x="-0.3404" y="2" relative="1" as="geometry">
            <mxPoint x="-7" y="1" as="offset" />
          </mxGeometry>
        </mxCell>
        <mxCell id="eV3RhDoACjASwN6lXlzt-45" value="Supply" style="html=1;overflow=block;blockSpacing=1;whiteSpace=wrap;rhombus;fontSize=20;spacing=3.8;rounded=1;absoluteArcSize=1;arcSize=9;strokeWidth=0.8;lucidId=O1WxcLbN-MQm;fillColor=#FFFFFF;" parent="1" vertex="1">
          <mxGeometry x="10" y="340" width="120" height="90" as="geometry" />
        </mxCell>
        <mxCell id="eV3RhDoACjASwN6lXlzt-47" value="" style="html=1;jettySize=18;whiteSpace=wrap;fontSize=13;strokeColor=#3a414a;strokeOpacity=100;strokeWidth=0.8;rounded=1;arcSize=12;edgeStyle=orthogonalEdgeStyle;startArrow=block;startFill=1;endArrow=none;exitX=0.012;exitY=0.5;exitPerimeter=0;entryX=1.006;entryY=0.5;entryPerimeter=0;lucidId=O1WxI~09TUfG;fillColor=#FFFFFF;" parent="1" source="eV3RhDoACjASwN6lXlzt-42" target="eV3RhDoACjASwN6lXlzt-4" edge="1">
          <mxGeometry width="100" height="100" relative="1" as="geometry">
            <Array as="points" />
          </mxGeometry>
        </mxCell>
        <mxCell id="eV3RhDoACjASwN6lXlzt-48" value="n" style="text;html=1;resizable=0;labelBackgroundColor=default;align=center;verticalAlign=middle;fontStyle=1;fontColor=#333333;fontSize=23.3;fillColor=#FFFFFF;" parent="eV3RhDoACjASwN6lXlzt-47" vertex="1">
          <mxGeometry x="-0.15710722753929662" relative="1" as="geometry" />
        </mxCell>
        <mxCell id="eV3RhDoACjASwN6lXlzt-57" value="Create" style="html=1;overflow=block;blockSpacing=1;whiteSpace=wrap;rhombus;fontSize=20;spacing=3.8;rounded=1;absoluteArcSize=1;arcSize=9;strokeWidth=NaN;lucidId=O1WxJ-2_Sfa7;fillColor=#FFFFFF;" parent="1" vertex="1">
          <mxGeometry x="738" y="610" width="120" height="90" as="geometry" />
        </mxCell>
        <mxCell id="eV3RhDoACjASwN6lXlzt-58" value="" style="html=1;jettySize=18;whiteSpace=wrap;fontSize=13;strokeColor=#3a414a;strokeOpacity=100;strokeWidth=0.8;rounded=1;arcSize=12;edgeStyle=orthogonalEdgeStyle;startArrow=none;endArrow=block;endFill=1;exitX=0.5;exitY=1.008;exitPerimeter=0;entryX=0.5;entryY=0.008;entryPerimeter=0;lucidId=O1WxEvLCkySi;fillColor=#FFFFFF;" parent="1" source="eV3RhDoACjASwN6lXlzt-7" target="eV3RhDoACjASwN6lXlzt-57" edge="1">
          <mxGeometry width="100" height="100" relative="1" as="geometry">
            <Array as="points" />
          </mxGeometry>
        </mxCell>
        <mxCell id="eV3RhDoACjASwN6lXlzt-59" value="1" style="text;html=1;resizable=0;labelBackgroundColor=default;align=center;verticalAlign=middle;fontStyle=1;fontColor=#333333;fontSize=20;fillColor=#FF66B3;" parent="eV3RhDoACjASwN6lXlzt-58" vertex="1">
          <mxGeometry relative="1" as="geometry" />
        </mxCell>
        <mxCell id="eV3RhDoACjASwN6lXlzt-60" value="" style="html=1;jettySize=18;whiteSpace=wrap;fontSize=20;fontColor=#333333;fontStyle=1;strokeColor=#3a414a;strokeOpacity=100;strokeWidth=0.8;rounded=1;arcSize=12;edgeStyle=orthogonalEdgeStyle;startArrow=none;endArrow=block;endFill=1;exitX=0.988;exitY=0.5;exitPerimeter=0;entryX=-0.006;entryY=0.5;entryPerimeter=0;lucidId=O1WxHVQ4RqAG;fillColor=#FFFFFF;" parent="1" source="eV3RhDoACjASwN6lXlzt-57" target="eV3RhDoACjASwN6lXlzt-13" edge="1">
          <mxGeometry width="100" height="100" relative="1" as="geometry">
            <Array as="points" />
          </mxGeometry>
        </mxCell>
        <mxCell id="eV3RhDoACjASwN6lXlzt-61" value="n" style="text;html=1;resizable=0;labelBackgroundColor=default;align=center;verticalAlign=middle;fontStyle=1;fontColor=#333333;fontSize=20;fillColor=#FFFFFF;" parent="eV3RhDoACjASwN6lXlzt-60" vertex="1">
          <mxGeometry relative="1" as="geometry" />
        </mxCell>
        <mxCell id="eV3RhDoACjASwN6lXlzt-62" value="Category" style="html=1;overflow=block;blockSpacing=1;whiteSpace=wrap;fontSize=20;spacing=9;rounded=1;absoluteArcSize=1;arcSize=9;strokeWidth=NaN;lucidId=O1WxHwZG4rg.;fillColor=#B3FF66;" parent="1" vertex="1">
          <mxGeometry x="380" y="250" width="120" height="90" as="geometry" />
        </mxCell>
        <mxCell id="eV3RhDoACjASwN6lXlzt-63" value="Relationship" style="html=1;overflow=block;blockSpacing=1;whiteSpace=wrap;rhombus;fontSize=20;spacing=3.8;rounded=1;absoluteArcSize=1;arcSize=9;strokeWidth=NaN;lucidId=O1WxJEPIkRsW;fillColor=#FFFFFF;" parent="1" vertex="1">
          <mxGeometry x="197" y="250" width="120" height="90" as="geometry" />
        </mxCell>
        <mxCell id="eV3RhDoACjASwN6lXlzt-64" value="" style="html=1;jettySize=18;whiteSpace=wrap;fontSize=13;strokeColor=#3a414a;strokeOpacity=100;strokeWidth=0.8;rounded=1;arcSize=12;edgeStyle=orthogonalEdgeStyle;startArrow=none;endArrow=block;endFill=1;exitX=0.5;exitY=-0.008;exitPerimeter=0;entryX=0.5;entryY=0.992;entryPerimeter=0;lucidId=O1WxW_vguotD;fillColor=#FFFFFF;" parent="1" source="eV3RhDoACjASwN6lXlzt-4" target="eV3RhDoACjASwN6lXlzt-63" edge="1">
          <mxGeometry width="100" height="100" relative="1" as="geometry">
            <Array as="points" />
          </mxGeometry>
        </mxCell>
        <mxCell id="eV3RhDoACjASwN6lXlzt-65" value="n" style="text;html=1;resizable=0;labelBackgroundColor=default;align=center;verticalAlign=middle;fontStyle=1;fontColor=#333333;fontSize=20;fillColor=#FFFFFF;" parent="eV3RhDoACjASwN6lXlzt-64" vertex="1">
          <mxGeometry relative="1" as="geometry" />
        </mxCell>
        <mxCell id="eV3RhDoACjASwN6lXlzt-66" value="" style="html=1;jettySize=18;whiteSpace=wrap;fontSize=20;fontColor=#333333;fontStyle=1;strokeColor=#3a414a;strokeOpacity=100;strokeWidth=0.8;rounded=1;arcSize=12;edgeStyle=orthogonalEdgeStyle;startArrow=block;startFill=1;endArrow=none;exitX=0.988;exitY=0.5;exitPerimeter=0;entryX=-0.006;entryY=0.5;entryPerimeter=0;lucidId=O1WxGW5JKwz9;fillColor=#FFFFFF;" parent="1" source="eV3RhDoACjASwN6lXlzt-63" target="eV3RhDoACjASwN6lXlzt-62" edge="1">
          <mxGeometry width="100" height="100" relative="1" as="geometry">
            <Array as="points" />
          </mxGeometry>
        </mxCell>
        <mxCell id="eV3RhDoACjASwN6lXlzt-67" value="n" style="text;html=1;resizable=0;labelBackgroundColor=default;align=center;verticalAlign=middle;fontStyle=1;fontColor=#333333;fontSize=20;fillColor=#FFFFFF;" parent="eV3RhDoACjASwN6lXlzt-66" vertex="1">
          <mxGeometry relative="1" as="geometry" />
        </mxCell>
        <mxCell id="eV3RhDoACjASwN6lXlzt-69" value="" style="html=1;jettySize=18;whiteSpace=wrap;fontSize=20;fontColor=#333333;fontStyle=1;strokeColor=#3a414a;strokeOpacity=100;strokeWidth=0.8;rounded=1;arcSize=12;edgeStyle=orthogonalEdgeStyle;startArrow=none;endArrow=block;endFill=1;exitX=0.012;exitY=0.5;exitPerimeter=0;entryX=0.5;entryY=0;lucidId=O1WxDj_mNzJ9;fillColor=#FFFFFF;entryDx=0;entryDy=0;" parent="1" source="eV3RhDoACjASwN6lXlzt-30" target="eV3RhDoACjASwN6lXlzt-5" edge="1">
          <mxGeometry width="100" height="100" relative="1" as="geometry">
            <Array as="points" />
            <mxPoint x="-461.28" y="-248" as="targetPoint" />
          </mxGeometry>
        </mxCell>
        <mxCell id="eV3RhDoACjASwN6lXlzt-70" value="n" style="text;html=1;resizable=0;labelBackgroundColor=default;align=center;verticalAlign=middle;fontStyle=1;fontColor=#333333;fontSize=20;fillColor=#FFFFFF;" parent="eV3RhDoACjASwN6lXlzt-69" vertex="1">
          <mxGeometry relative="1" as="geometry" />
        </mxCell>
        <mxCell id="eV3RhDoACjASwN6lXlzt-75" value="" style="html=1;jettySize=18;whiteSpace=wrap;fontSize=20;fontColor=#333333;fontStyle=1;strokeColor=#3a414a;strokeOpacity=100;strokeWidth=0.8;rounded=1;arcSize=12;edgeStyle=orthogonalEdgeStyle;startArrow=none;endArrow=block;endFill=1;exitX=0.5;exitY=0.992;exitPerimeter=0;entryX=0.5;entryY=-0.008;entryPerimeter=0;lucidId=O1Wx_OtE5H0Z;fillColor=#FFFFFF;" parent="1" source="eV3RhDoACjASwN6lXlzt-33" target="eV3RhDoACjASwN6lXlzt-14" edge="1">
          <mxGeometry width="100" height="100" relative="1" as="geometry">
            <Array as="points" />
          </mxGeometry>
        </mxCell>
        <mxCell id="eV3RhDoACjASwN6lXlzt-76" value="1" style="text;html=1;resizable=0;labelBackgroundColor=default;align=center;verticalAlign=middle;fontStyle=1;fontColor=#333333;fontSize=20;fillColor=#FFFFFF;" parent="eV3RhDoACjASwN6lXlzt-75" vertex="1">
          <mxGeometry relative="1" as="geometry" />
        </mxCell>
        <mxCell id="WvZ_r-O3yaMu9ILPuDDe-4" value="" style="edgeStyle=orthogonalEdgeStyle;rounded=0;orthogonalLoop=1;jettySize=auto;html=1;" parent="1" source="eV3RhDoACjASwN6lXlzt-77" target="eV3RhDoACjASwN6lXlzt-7" edge="1">
          <mxGeometry relative="1" as="geometry" />
        </mxCell>
        <mxCell id="eV3RhDoACjASwN6lXlzt-77" value="Manage" style="html=1;overflow=block;blockSpacing=1;whiteSpace=wrap;rhombus;fontSize=20;spacing=3.8;rounded=1;absoluteArcSize=1;arcSize=9;strokeWidth=NaN;lucidId=O1Wxqq~Go_gM;fillColor=#FFFFFF;" parent="1" vertex="1">
          <mxGeometry x="738" y="187" width="120" height="90" as="geometry" />
        </mxCell>
        <mxCell id="eV3RhDoACjASwN6lXlzt-78" value="" style="html=1;jettySize=18;whiteSpace=wrap;fontSize=13;strokeColor=#3a414a;strokeOpacity=100;strokeWidth=0.8;rounded=1;arcSize=12;edgeStyle=orthogonalEdgeStyle;startArrow=none;endArrow=block;endFill=1;exitX=0.5;exitY=-0.008;exitPerimeter=0;entryX=0.5;entryY=0.992;entryPerimeter=0;lucidId=O1WxbdJOIGqL;fillColor=#FF66B3;" parent="1" source="eV3RhDoACjASwN6lXlzt-7" target="eV3RhDoACjASwN6lXlzt-77" edge="1">
          <mxGeometry width="100" height="100" relative="1" as="geometry">
            <Array as="points" />
          </mxGeometry>
        </mxCell>
        <mxCell id="eV3RhDoACjASwN6lXlzt-79" value="1" style="text;html=1;resizable=0;labelBackgroundColor=default;align=center;verticalAlign=middle;fontStyle=1;fontColor=#333333;fontSize=20;fillColor=#FF66B3;" parent="eV3RhDoACjASwN6lXlzt-78" vertex="1">
          <mxGeometry relative="1" as="geometry" />
        </mxCell>
        <mxCell id="eV3RhDoACjASwN6lXlzt-80" value="" style="html=1;jettySize=18;whiteSpace=wrap;fontSize=20;fontColor=#333333;fontStyle=1;strokeColor=#3a414a;strokeOpacity=100;strokeWidth=0.8;rounded=1;arcSize=12;edgeStyle=orthogonalEdgeStyle;startArrow=none;endArrow=block;endFill=1;exitX=0.5;exitY=0.008;exitPerimeter=0;entryX=1.006;entryY=0.5;entryPerimeter=0;lucidId=O1WxU7YOaWLU;fillColor=#FFFFFF;" parent="1" source="eV3RhDoACjASwN6lXlzt-77" target="eV3RhDoACjASwN6lXlzt-10" edge="1">
          <mxGeometry width="100" height="100" relative="1" as="geometry">
            <Array as="points" />
          </mxGeometry>
        </mxCell>
        <mxCell id="eV3RhDoACjASwN6lXlzt-81" value="n" style="text;html=1;resizable=0;labelBackgroundColor=default;align=center;verticalAlign=middle;fontStyle=1;fontColor=#333333;fontSize=20;fillColor=#FFFF66;" parent="eV3RhDoACjASwN6lXlzt-80" vertex="1">
          <mxGeometry relative="1" as="geometry" />
        </mxCell>
        <mxCell id="HMNSScPT_RX_UITbaOxH-14" style="edgeStyle=orthogonalEdgeStyle;rounded=0;orthogonalLoop=1;jettySize=auto;html=1;exitX=0;exitY=0.5;exitDx=0;exitDy=0;entryX=1;entryY=0.5;entryDx=0;entryDy=0;fillColor=#FF66B3;" parent="1" source="eV3RhDoACjASwN6lXlzt-89" target="eV3RhDoACjASwN6lXlzt-7" edge="1">
          <mxGeometry relative="1" as="geometry" />
        </mxCell>
        <mxCell id="HMNSScPT_RX_UITbaOxH-12" value="" style="edgeStyle=orthogonalEdgeStyle;rounded=0;orthogonalLoop=1;jettySize=auto;html=1;fillColor=#FF66B3;" parent="1" source="eV3RhDoACjASwN6lXlzt-90" target="eV3RhDoACjASwN6lXlzt-7" edge="1">
          <mxGeometry relative="1" as="geometry" />
        </mxCell>
        <mxCell id="eV3RhDoACjASwN6lXlzt-90" value="AdminFname" style="ellipse;whiteSpace=wrap;html=1;fillColor=#FF66B3;" parent="1" vertex="1">
          <mxGeometry x="920" y="310" width="110" height="70" as="geometry" />
        </mxCell>
        <mxCell id="HMNSScPT_RX_UITbaOxH-10" value="" style="edgeStyle=orthogonalEdgeStyle;rounded=0;orthogonalLoop=1;jettySize=auto;html=1;fillColor=#FF66B3;" parent="1" source="eV3RhDoACjASwN6lXlzt-91" target="eV3RhDoACjASwN6lXlzt-7" edge="1">
          <mxGeometry relative="1" as="geometry" />
        </mxCell>
        <mxCell id="eV3RhDoACjASwN6lXlzt-91" value="AdminLname" style="ellipse;whiteSpace=wrap;html=1;fillColor=#FF66B3;" parent="1" vertex="1">
          <mxGeometry x="920" y="410" width="100" height="70" as="geometry" />
        </mxCell>
        <mxCell id="HMNSScPT_RX_UITbaOxH-13" style="edgeStyle=orthogonalEdgeStyle;rounded=0;orthogonalLoop=1;jettySize=auto;html=1;entryX=1;entryY=0.5;entryDx=0;entryDy=0;fillColor=#FF66B3;" parent="1" source="eV3RhDoACjASwN6lXlzt-92" target="eV3RhDoACjASwN6lXlzt-7" edge="1">
          <mxGeometry relative="1" as="geometry" />
        </mxCell>
        <mxCell id="eV3RhDoACjASwN6lXlzt-92" value="AdminPassword" style="ellipse;whiteSpace=wrap;html=1;fillColor=#FF66B3;" parent="1" vertex="1">
          <mxGeometry x="920" y="500" width="110" height="70" as="geometry" />
        </mxCell>
        <mxCell id="mWximblNaosc78DOpVdS-2" value="&lt;u&gt;Personal_ID&lt;/u&gt;" style="ellipse;whiteSpace=wrap;html=1;fillColor=#FFFF66;" parent="1" vertex="1">
          <mxGeometry x="363" y="-186.75" width="97" height="67" as="geometry" />
        </mxCell>
        <mxCell id="mWximblNaosc78DOpVdS-3" value="Phone" style="ellipse;whiteSpace=wrap;html=1;fillColor=#FFFF66;" parent="1" vertex="1">
          <mxGeometry x="470" y="-190" width="107" height="67" as="geometry" />
        </mxCell>
        <mxCell id="mWximblNaosc78DOpVdS-4" value="Email" style="ellipse;whiteSpace=wrap;html=1;fillColor=#FFFF66;" parent="1" vertex="1">
          <mxGeometry x="577" y="-190" width="107" height="67" as="geometry" />
        </mxCell>
        <mxCell id="mWximblNaosc78DOpVdS-5" value="Address" style="ellipse;whiteSpace=wrap;html=1;fillColor=#FFFF66;" parent="1" vertex="1">
          <mxGeometry x="680" y="85" width="110" height="70" as="geometry" />
        </mxCell>
        <mxCell id="mWximblNaosc78DOpVdS-6" value="Postal Code" style="ellipse;whiteSpace=wrap;html=1;fillColor=#FFFF66;" parent="1" vertex="1">
          <mxGeometry x="450" y="130" width="110" height="70" as="geometry" />
        </mxCell>
        <mxCell id="mWximblNaosc78DOpVdS-7" value="City" style="ellipse;whiteSpace=wrap;html=1;fillColor=#FFFF66;" parent="1" vertex="1">
          <mxGeometry x="573" y="120" width="107" height="70" as="geometry" />
        </mxCell>
        <mxCell id="7wPqyoWWFyx9RwUsR-dm-1" value="ProductName" style="ellipse;whiteSpace=wrap;html=1;fillColor=#FF9933;" parent="1" vertex="1">
          <mxGeometry x="590" y="-479" width="100" height="72" as="geometry" />
        </mxCell>
        <mxCell id="7wPqyoWWFyx9RwUsR-dm-2" value="Quantity" style="ellipse;whiteSpace=wrap;html=1;fillColor=#FF9933;" parent="1" vertex="1">
          <mxGeometry x="590" y="-390" width="110" height="70" as="geometry" />
        </mxCell>
        <mxCell id="7wPqyoWWFyx9RwUsR-dm-3" value="TotalPrice" style="ellipse;whiteSpace=wrap;html=1;fillColor=#FF9933;" parent="1" vertex="1">
          <mxGeometry x="590" y="-300" width="110" height="70" as="geometry" />
        </mxCell>
        <mxCell id="G_s4Kn6PdvYfsL-4GnpG-14" style="edgeStyle=orthogonalEdgeStyle;rounded=0;orthogonalLoop=1;jettySize=auto;html=1;exitX=0;exitY=0.5;exitDx=0;exitDy=0;entryX=1;entryY=0.5;entryDx=0;entryDy=0;fillColor=#FF66FF;" parent="1" source="G_s4Kn6PdvYfsL-4GnpG-1" target="eV3RhDoACjASwN6lXlzt-13" edge="1">
          <mxGeometry relative="1" as="geometry" />
        </mxCell>
        <mxCell id="G_s4Kn6PdvYfsL-4GnpG-1" value="&lt;u&gt;DiscountID&lt;/u&gt;" style="ellipse;whiteSpace=wrap;html=1;fillColor=#FF66FF;" parent="1" vertex="1">
          <mxGeometry x="1280" y="550" width="90" height="70" as="geometry" />
        </mxCell>
        <mxCell id="G_s4Kn6PdvYfsL-4GnpG-10" value="" style="edgeStyle=orthogonalEdgeStyle;rounded=0;orthogonalLoop=1;jettySize=auto;html=1;fillColor=#FF66FF;" parent="1" source="G_s4Kn6PdvYfsL-4GnpG-6" target="eV3RhDoACjASwN6lXlzt-13" edge="1">
          <mxGeometry relative="1" as="geometry" />
        </mxCell>
        <mxCell id="G_s4Kn6PdvYfsL-4GnpG-6" value="DiscountPercent" style="ellipse;whiteSpace=wrap;html=1;fillColor=#FF66FF;" parent="1" vertex="1">
          <mxGeometry x="1280" y="650" width="90" height="70" as="geometry" />
        </mxCell>
        <mxCell id="G_s4Kn6PdvYfsL-4GnpG-13" style="edgeStyle=orthogonalEdgeStyle;rounded=0;orthogonalLoop=1;jettySize=auto;html=1;exitX=0;exitY=0.5;exitDx=0;exitDy=0;entryX=1;entryY=0.5;entryDx=0;entryDy=0;fillColor=#FF66FF;" parent="1" source="G_s4Kn6PdvYfsL-4GnpG-7" target="eV3RhDoACjASwN6lXlzt-13" edge="1">
          <mxGeometry relative="1" as="geometry" />
        </mxCell>
        <mxCell id="G_s4Kn6PdvYfsL-4GnpG-7" value="StartDate" style="ellipse;whiteSpace=wrap;html=1;fillColor=#FF66FF;" parent="1" vertex="1">
          <mxGeometry x="1280" y="740" width="90" height="70" as="geometry" />
        </mxCell>
        <mxCell id="G_s4Kn6PdvYfsL-4GnpG-12" style="edgeStyle=orthogonalEdgeStyle;rounded=0;orthogonalLoop=1;jettySize=auto;html=1;exitX=0;exitY=0.5;exitDx=0;exitDy=0;entryX=1;entryY=0.5;entryDx=0;entryDy=0;fillColor=#FF66FF;" parent="1" source="G_s4Kn6PdvYfsL-4GnpG-8" target="eV3RhDoACjASwN6lXlzt-13" edge="1">
          <mxGeometry relative="1" as="geometry" />
        </mxCell>
        <mxCell id="G_s4Kn6PdvYfsL-4GnpG-8" value="EndDate" style="ellipse;whiteSpace=wrap;html=1;fillColor=#FF66FF;" parent="1" vertex="1">
          <mxGeometry x="1280" y="820" width="90" height="70" as="geometry" />
        </mxCell>
        <mxCell id="Ew3ISGZHmtncqB4_4hlP-1" value="&lt;u&gt;CustomerID&lt;/u&gt;" style="ellipse;whiteSpace=wrap;html=1;fillColor=#66FFFF;" parent="1" vertex="1">
          <mxGeometry x="-240" y="-70" width="103" height="70" as="geometry" />
        </mxCell>
        <mxCell id="Ew3ISGZHmtncqB4_4hlP-4" value="Username" style="ellipse;whiteSpace=wrap;html=1;fillColor=#66FFFF;" parent="1" vertex="1">
          <mxGeometry x="-240" y="-140" width="110" height="70" as="geometry" />
        </mxCell>
        <mxCell id="Ew3ISGZHmtncqB4_4hlP-5" value="Password" style="ellipse;whiteSpace=wrap;html=1;fillColor=#66FFFF;" parent="1" vertex="1">
          <mxGeometry x="-230" y="10" width="110" height="75" as="geometry" />
        </mxCell>
        <mxCell id="Ew3ISGZHmtncqB4_4hlP-6" value="FName" style="ellipse;whiteSpace=wrap;html=1;fillColor=#FFFF66;" parent="1" vertex="1">
          <mxGeometry x="700" y="-190" width="100" height="73.5" as="geometry" />
        </mxCell>
        <mxCell id="Ew3ISGZHmtncqB4_4hlP-7" value="LName" style="ellipse;whiteSpace=wrap;html=1;fillColor=#FFFF66;" parent="1" vertex="1">
          <mxGeometry x="360" y="85" width="100" height="70" as="geometry" />
        </mxCell>
        <mxCell id="sdWxecbIoMMPNqyhhqgh-1" value="&lt;u&gt;SellerID&lt;/u&gt;" style="ellipse;whiteSpace=wrap;html=1;fillColor=#66B2FF;" parent="1" vertex="1">
          <mxGeometry x="-344" y="57" width="100" height="73" as="geometry" />
        </mxCell>
        <mxCell id="sdWxecbIoMMPNqyhhqgh-2" value="Username" style="ellipse;whiteSpace=wrap;html=1;fillColor=#66B2FF;" parent="1" vertex="1">
          <mxGeometry x="-340" y="130" width="92" height="70" as="geometry" />
        </mxCell>
        <mxCell id="sdWxecbIoMMPNqyhhqgh-3" value="Password" style="ellipse;whiteSpace=wrap;html=1;fillColor=#66B2FF;" parent="1" vertex="1">
          <mxGeometry x="-341" y="200" width="94" height="75" as="geometry" />
        </mxCell>
        <mxCell id="sdWxecbIoMMPNqyhhqgh-4" value="Shopname" style="ellipse;whiteSpace=wrap;html=1;fillColor=#66B2FF;" parent="1" vertex="1">
          <mxGeometry x="-342" y="277" width="100" height="75" as="geometry" />
        </mxCell>
        <mxCell id="sdWxecbIoMMPNqyhhqgh-5" value="BusinessLicense" style="ellipse;whiteSpace=wrap;html=1;fillColor=#66B2FF;" parent="1" vertex="1">
          <mxGeometry x="-342" y="352" width="92" height="78" as="geometry" />
        </mxCell>
        <mxCell id="sdWxecbIoMMPNqyhhqgh-6" value="BusinessType" style="ellipse;whiteSpace=wrap;html=1;fillColor=#66B2FF;" parent="1" vertex="1">
          <mxGeometry x="-347" y="427" width="104" height="73" as="geometry" />
        </mxCell>
        <mxCell id="sdWxecbIoMMPNqyhhqgh-13" value="&lt;u&gt;OrderID&lt;/u&gt;" style="ellipse;whiteSpace=wrap;html=1;fillColor=#B5739D;" parent="1" vertex="1">
          <mxGeometry x="-830" y="80" width="120" height="80" as="geometry" />
        </mxCell>
        <mxCell id="sdWxecbIoMMPNqyhhqgh-16" value="OrderDate" style="ellipse;whiteSpace=wrap;html=1;fillColor=#B5739D;" parent="1" vertex="1">
          <mxGeometry x="-830" y="170" width="120" height="80" as="geometry" />
        </mxCell>
        <mxCell id="sdWxecbIoMMPNqyhhqgh-17" value="ProductName" style="ellipse;whiteSpace=wrap;html=1;fillColor=#33FF99;" parent="1" vertex="1">
          <mxGeometry x="-710" y="690" width="120" height="80" as="geometry" />
        </mxCell>
        <mxCell id="sdWxecbIoMMPNqyhhqgh-18" value="Quantity" style="ellipse;whiteSpace=wrap;html=1;fillColor=#33FF99;" parent="1" vertex="1">
          <mxGeometry x="-545" y="690" width="120" height="80" as="geometry" />
        </mxCell>
        <mxCell id="sdWxecbIoMMPNqyhhqgh-19" value="UnitPrice" style="ellipse;whiteSpace=wrap;html=1;fillColor=#33FF99;" parent="1" vertex="1">
          <mxGeometry x="-760" y="580" width="120" height="80" as="geometry" />
        </mxCell>
        <mxCell id="eV3RhDoACjASwN6lXlzt-89" value="&lt;u&gt;AdminID&lt;/u&gt;" style="ellipse;whiteSpace=wrap;html=1;fontSize=12;fillColor=#FF66B3;" parent="1" vertex="1">
          <mxGeometry x="920" y="220" width="110" height="70" as="geometry" />
        </mxCell>
        <mxCell id="HMNSScPT_RX_UITbaOxH-18" style="edgeStyle=orthogonalEdgeStyle;rounded=0;orthogonalLoop=1;jettySize=auto;html=1;exitX=0;exitY=0.5;exitDx=0;exitDy=0;entryX=1;entryY=0.5;entryDx=0;entryDy=0;fillColor=#B3FF66;" parent="1" source="HMNSScPT_RX_UITbaOxH-15" target="eV3RhDoACjASwN6lXlzt-62" edge="1">
          <mxGeometry relative="1" as="geometry" />
        </mxCell>
        <mxCell id="HMNSScPT_RX_UITbaOxH-15" value="&lt;u&gt;CategoryID&lt;/u&gt;" style="ellipse;whiteSpace=wrap;html=1;fontSize=12;fillColor=#B3FF66;" parent="1" vertex="1">
          <mxGeometry x="590" y="192" width="110" height="70" as="geometry" />
        </mxCell>
        <mxCell id="HMNSScPT_RX_UITbaOxH-19" value="" style="edgeStyle=orthogonalEdgeStyle;rounded=0;orthogonalLoop=1;jettySize=auto;html=1;fillColor=#B3FF66;" parent="1" source="HMNSScPT_RX_UITbaOxH-16" target="eV3RhDoACjASwN6lXlzt-62" edge="1">
          <mxGeometry relative="1" as="geometry" />
        </mxCell>
        <mxCell id="HMNSScPT_RX_UITbaOxH-16" value="CategoryName" style="ellipse;whiteSpace=wrap;html=1;fontSize=12;fillColor=#B3FF66;" parent="1" vertex="1">
          <mxGeometry x="590" y="260" width="110" height="70" as="geometry" />
        </mxCell>
        <mxCell id="HMNSScPT_RX_UITbaOxH-20" value="" style="edgeStyle=orthogonalEdgeStyle;rounded=0;orthogonalLoop=1;jettySize=auto;html=1;fillColor=#B3FF66;" parent="1" source="HMNSScPT_RX_UITbaOxH-17" target="eV3RhDoACjASwN6lXlzt-62" edge="1">
          <mxGeometry relative="1" as="geometry" />
        </mxCell>
        <mxCell id="HMNSScPT_RX_UITbaOxH-17" value="Description" style="ellipse;whiteSpace=wrap;html=1;fontSize=12;fillColor=#B3FF66;" parent="1" vertex="1">
          <mxGeometry x="590" y="332" width="110" height="70" as="geometry" />
        </mxCell>
        <mxCell id="oNS-cugH-SvngT2qNodD-22" value="&lt;u&gt;ProductID&lt;/u&gt;" style="ellipse;whiteSpace=wrap;html=1;fillColor=#9AC7BF;" parent="1" vertex="1">
          <mxGeometry x="217" y="598.5" width="93" height="60" as="geometry" />
        </mxCell>
        <mxCell id="oNS-cugH-SvngT2qNodD-23" value="ProductName" style="ellipse;whiteSpace=wrap;html=1;fillColor=#9AC7BF;" parent="1" vertex="1">
          <mxGeometry x="413" y="580" width="100" height="60" as="geometry" />
        </mxCell>
        <mxCell id="oNS-cugH-SvngT2qNodD-24" value="Price" style="ellipse;whiteSpace=wrap;html=1;fillColor=#9AC7BF;" parent="1" vertex="1">
          <mxGeometry x="140" y="555" width="93" height="60" as="geometry" />
        </mxCell>
        <mxCell id="oNS-cugH-SvngT2qNodD-25" value="Picture" style="ellipse;whiteSpace=wrap;html=1;fillColor=#9AC7BF;" parent="1" vertex="1">
          <mxGeometry x="303.5" y="560" width="100" height="60" as="geometry" />
        </mxCell>
        <mxCell id="oNS-cugH-SvngT2qNodD-26" value="Description" style="ellipse;whiteSpace=wrap;html=1;fillColor=#9AC7BF;" parent="1" vertex="1">
          <mxGeometry x="497.5" y="540" width="86.5" height="58.5" as="geometry" />
        </mxCell>
        <mxCell id="WvZ_r-O3yaMu9ILPuDDe-1" value="&lt;u&gt;CustomerID&lt;/u&gt;" style="ellipse;whiteSpace=wrap;html=1;fillColor=#FF9933;" parent="1" vertex="1">
          <mxGeometry x="584" y="-550" width="100" height="60" as="geometry" />
        </mxCell>
        <mxCell id="MG0eSca9hp437T0Xjx-o-9" style="edgeStyle=orthogonalEdgeStyle;rounded=0;orthogonalLoop=1;jettySize=auto;html=1;exitX=1;exitY=0.5;exitDx=0;exitDy=0;entryX=0.5;entryY=1;entryDx=0;entryDy=0;" edge="1" parent="1" source="MG0eSca9hp437T0Xjx-o-7" target="eV3RhDoACjASwN6lXlzt-13">
          <mxGeometry relative="1" as="geometry" />
        </mxCell>
        <mxCell id="MG0eSca9hp437T0Xjx-o-13" value="&lt;font style=&quot;font-size: 18px;&quot;&gt;&lt;b&gt;1&lt;/b&gt;&lt;/font&gt;" style="edgeLabel;html=1;align=center;verticalAlign=middle;resizable=0;points=[];" vertex="1" connectable="0" parent="MG0eSca9hp437T0Xjx-o-9">
          <mxGeometry x="-0.184" y="-2" relative="1" as="geometry">
            <mxPoint as="offset" />
          </mxGeometry>
        </mxCell>
        <mxCell id="MG0eSca9hp437T0Xjx-o-7" value="&lt;font style=&quot;font-size: 24px;&quot;&gt;Apply&lt;/font&gt;" style="rhombus;whiteSpace=wrap;html=1;strokeColor=default;" vertex="1" parent="1">
          <mxGeometry x="310" y="730" width="140" height="80" as="geometry" />
        </mxCell>
        <mxCell id="MG0eSca9hp437T0Xjx-o-19" style="edgeStyle=orthogonalEdgeStyle;rounded=0;orthogonalLoop=1;jettySize=auto;html=1;exitX=1;exitY=0.5;exitDx=0;exitDy=0;entryX=0;entryY=0.25;entryDx=0;entryDy=0;" edge="1" parent="1" source="MG0eSca9hp437T0Xjx-o-17" target="eV3RhDoACjASwN6lXlzt-4">
          <mxGeometry relative="1" as="geometry" />
        </mxCell>
        <mxCell id="MG0eSca9hp437T0Xjx-o-24" value="&lt;font style=&quot;font-size: 18px;&quot;&gt;&lt;b&gt;1&lt;/b&gt;&lt;/font&gt;" style="edgeLabel;html=1;align=center;verticalAlign=middle;resizable=0;points=[];" vertex="1" connectable="0" parent="MG0eSca9hp437T0Xjx-o-19">
          <mxGeometry x="0.07" relative="1" as="geometry">
            <mxPoint as="offset" />
          </mxGeometry>
        </mxCell>
        <mxCell id="MG0eSca9hp437T0Xjx-o-17" value="&lt;font style=&quot;font-size: 24px;&quot;&gt;Has&lt;/font&gt;" style="rhombus;whiteSpace=wrap;html=1;" vertex="1" parent="1">
          <mxGeometry x="-244" y="540" width="135" height="80" as="geometry" />
        </mxCell>
        <mxCell id="MG0eSca9hp437T0Xjx-o-27" style="edgeStyle=orthogonalEdgeStyle;rounded=0;orthogonalLoop=1;jettySize=auto;html=1;exitX=1;exitY=0;exitDx=0;exitDy=0;entryX=0;entryY=0.367;entryDx=0;entryDy=0;entryPerimeter=0;" edge="1" parent="1" source="eV3RhDoACjASwN6lXlzt-6" target="WvZ_r-O3yaMu9ILPuDDe-1">
          <mxGeometry relative="1" as="geometry" />
        </mxCell>
        <mxCell id="MG0eSca9hp437T0Xjx-o-34" style="edgeStyle=orthogonalEdgeStyle;rounded=0;orthogonalLoop=1;jettySize=auto;html=1;exitX=0.5;exitY=0;exitDx=0;exitDy=0;entryX=0.5;entryY=1;entryDx=0;entryDy=0;" edge="1" parent="1" source="MG0eSca9hp437T0Xjx-o-29" target="MG0eSca9hp437T0Xjx-o-32">
          <mxGeometry relative="1" as="geometry" />
        </mxCell>
        <mxCell id="MG0eSca9hp437T0Xjx-o-29" value="&lt;font style=&quot;font-size: 18px;&quot;&gt;Payment&lt;/font&gt;" style="ellipse;whiteSpace=wrap;html=1;fillColor=#B5739D;" vertex="1" parent="1">
          <mxGeometry x="-770" y="-23" width="120" height="80" as="geometry" />
        </mxCell>
        <mxCell id="MG0eSca9hp437T0Xjx-o-32" value="&lt;font style=&quot;font-size: 18px;&quot;&gt;PaymentType&lt;/font&gt;" style="ellipse;whiteSpace=wrap;html=1;fillColor=#B5739D;" vertex="1" parent="1">
          <mxGeometry x="-650" y="-160" width="120" height="80" as="geometry" />
        </mxCell>
        <mxCell id="MG0eSca9hp437T0Xjx-o-35" value="&lt;font style=&quot;font-size: 18px;&quot;&gt;PaymentDate&lt;/font&gt;" style="ellipse;whiteSpace=wrap;html=1;fillColor=#B5739D;" vertex="1" parent="1">
          <mxGeometry x="-820" y="-160" width="120" height="80" as="geometry" />
        </mxCell>
        <mxCell id="MG0eSca9hp437T0Xjx-o-36" style="edgeStyle=orthogonalEdgeStyle;rounded=0;orthogonalLoop=1;jettySize=auto;html=1;exitX=0;exitY=0;exitDx=0;exitDy=0;entryX=0.558;entryY=1.025;entryDx=0;entryDy=0;entryPerimeter=0;" edge="1" parent="1" source="MG0eSca9hp437T0Xjx-o-29" target="MG0eSca9hp437T0Xjx-o-35">
          <mxGeometry relative="1" as="geometry" />
        </mxCell>
        <mxCell id="MG0eSca9hp437T0Xjx-o-39" value="CommentDate" style="ellipse;whiteSpace=wrap;html=1;" vertex="1" parent="1">
          <mxGeometry x="-257" y="-540" width="120" height="80" as="geometry" />
        </mxCell>
        <mxCell id="MG0eSca9hp437T0Xjx-o-40" value="Content" style="ellipse;whiteSpace=wrap;html=1;" vertex="1" parent="1">
          <mxGeometry x="-150" y="-600" width="120" height="80" as="geometry" />
        </mxCell>
        <mxCell id="MG0eSca9hp437T0Xjx-o-41" value="CommentID" style="ellipse;whiteSpace=wrap;html=1;" vertex="1" parent="1">
          <mxGeometry x="-248" y="-420" width="120" height="80" as="geometry" />
        </mxCell>
        <mxCell id="MG0eSca9hp437T0Xjx-o-43" style="edgeStyle=orthogonalEdgeStyle;rounded=0;orthogonalLoop=1;jettySize=auto;html=1;exitX=0;exitY=0.5;exitDx=0;exitDy=0;entryX=1;entryY=0.613;entryDx=0;entryDy=0;entryPerimeter=0;" edge="1" parent="1" source="eV3RhDoACjASwN6lXlzt-37" target="MG0eSca9hp437T0Xjx-o-39">
          <mxGeometry relative="1" as="geometry" />
        </mxCell>
        <mxCell id="MG0eSca9hp437T0Xjx-o-45" style="edgeStyle=orthogonalEdgeStyle;rounded=0;orthogonalLoop=1;jettySize=auto;html=1;exitX=1;exitY=0.5;exitDx=0;exitDy=0;entryX=0;entryY=0.667;entryDx=0;entryDy=0;entryPerimeter=0;" edge="1" parent="1" source="eV3RhDoACjASwN6lXlzt-37" target="eV3RhDoACjASwN6lXlzt-4">
          <mxGeometry relative="1" as="geometry" />
        </mxCell>
        <mxCell id="MG0eSca9hp437T0Xjx-o-47" value="&lt;font style=&quot;font-size: 24px;&quot;&gt;&lt;b&gt;n&lt;/b&gt;&lt;/font&gt;" style="edgeLabel;html=1;align=center;verticalAlign=middle;resizable=0;points=[];" vertex="1" connectable="0" parent="MG0eSca9hp437T0Xjx-o-45">
          <mxGeometry x="0.8367" y="-2" relative="1" as="geometry">
            <mxPoint as="offset" />
          </mxGeometry>
        </mxCell>
      </root>
    </mxGraphModel>
  </diagram>
</mxfile>
